<?xml version="1.0" encoding="UTF-8" standalone="no"?>
<svg
   viewBox="0 0 841.9 595.3"
   version="1.1"
   id="svg5259"
   xmlns="http://www.w3.org/2000/svg"
   xmlns:svg="http://www.w3.org/2000/svg">
  <defs
     id="defs5263" />
  <g
     fill="#61DAFB"
     id="g5257">
    <path
       d="M666.3 296.5c0-32.5-40.7-63.3-103.1-82.4 14.4-63.6 8-114.2-20.2-130.4-6.5-3.8-14.1-5.6-22.4-5.6v22.3c4.6 0 8.3.9 11.4 2.6 13.6 7.8 19.5 37.5 14.9 75.7-1.1 9.4-2.9 19.3-5.1 29.4-19.6-4.8-41-8.5-63.5-10.9-13.5-18.5-27.5-35.3-41.6-50 32.6-30.3 63.2-46.9 84-46.9V78c-27.5 0-63.5 19.6-99.9 53.6-36.4-33.8-72.4-53.2-99.9-53.2v22.3c20.7 0 51.4 16.5 84 46.6-14 14.7-28 31.4-41.3 49.9-22.6 2.4-44 6.1-63.6 11-2.3-10-4-19.7-5.2-29-4.7-38.2 1.1-67.9 14.6-75.8 3-1.8 6.9-2.6 11.5-2.6V78.5c-8.4 0-16 1.8-22.6 5.6-28.1 16.2-34.4 66.7-19.9 130.1-62.2 19.2-102.7 49.9-102.7 82.3 0 32.5 40.7 63.3 103.1 82.4-14.4 63.6-8 114.2 20.2 130.4 6.5 3.8 14.1 5.6 22.5 5.6 27.5 0 63.5-19.6 99.9-53.6 36.4 33.8 72.4 53.2 99.9 53.2 8.4 0 16-1.8 22.6-5.6 28.1-16.2 34.4-66.7 19.9-130.1 62-19.1 102.5-49.9 102.5-82.3zm-130.2-66.7c-3.7 12.9-8.3 26.2-13.5 39.5-4.1-8-8.4-16-13.1-24-4.6-8-9.5-15.8-14.4-23.4 14.2 2.1 27.9 4.7 41 7.9zm-45.8 106.5c-7.8 13.5-15.8 26.3-24.1 38.2-14.9 1.3-30 2-45.2 2-15.1 0-30.2-.7-45-1.9-8.3-11.9-16.4-24.6-24.2-38-7.6-13.1-14.5-26.4-20.8-39.8 6.2-13.4 13.2-26.8 20.7-39.9 7.8-13.5 15.8-26.3 24.1-38.2 14.9-1.3 30-2 45.2-2 15.1 0 30.2.7 45 1.9 8.3 11.9 16.4 24.6 24.2 38 7.6 13.1 14.5 26.4 20.8 39.8-6.3 13.4-13.2 26.8-20.7 39.9zm32.3-13c5.4 13.4 10 26.8 13.8 39.8-13.1 3.2-26.9 5.9-41.2 8 4.9-7.7 9.8-15.6 14.4-23.7 4.6-8 8.9-16.1 13-24.1zM421.2 430c-9.3-9.6-18.6-20.3-27.8-32 9 .4 18.2.7 27.5.7 9.4 0 18.7-.2 27.8-.7-9 11.7-18.3 22.4-27.5 32zm-74.4-58.9c-14.2-2.1-27.9-4.7-41-7.9 3.7-12.9 8.3-26.2 13.5-39.5 4.1 8 8.4 16 13.1 24 4.7 8 9.5 15.8 14.4 23.4zM420.7 163c9.3 9.6 18.6 20.3 27.8 32-9-.4-18.2-.7-27.5-.7-9.4 0-18.7.2-27.8.7 9-11.7 18.3-22.4 27.5-32zm-74 58.9c-4.9 7.7-9.8 15.6-14.4 23.7-4.6 8-8.9 16-13 24-5.4-13.4-10-26.8-13.8-39.8 13.1-3.1 26.9-5.8 41.2-7.9zm-90.5 125.2c-35.4-15.1-58.3-34.9-58.3-50.6 0-15.7 22.9-35.6 58.3-50.6 8.6-3.7 18-7 27.7-10.1 5.7 19.6 13.2 40 22.5 60.9-9.2 20.8-16.6 41.1-22.2 60.6-9.9-3.1-19.3-6.5-28-10.2zM310 490c-13.6-7.8-19.5-37.5-14.9-75.7 1.1-9.4 2.9-19.3 5.1-29.4 19.6 4.8 41 8.5 63.5 10.9 13.5 18.5 27.5 35.3 41.6 50-32.6 30.3-63.2 46.9-84 46.9-4.5-.1-8.3-1-11.3-2.7zm237.2-76.2c4.7 38.2-1.1 67.9-14.6 75.8-3 1.8-6.9 2.6-11.5 2.6-20.7 0-51.4-16.5-84-46.6 14-14.7 28-31.4 41.3-49.9 22.6-2.4 44-6.1 63.6-11 2.3 10.1 4.1 19.8 5.2 29.1zm38.5-66.7c-8.6 3.7-18 7-27.7 10.1-5.7-19.6-13.2-40-22.5-60.9 9.2-20.8 16.6-41.1 22.2-60.6 9.9 3.1 19.3 6.5 28.1 10.2 35.4 15.1 58.3 34.9 58.3 50.6-.1 15.7-23 35.6-58.4 50.6zM320.8 78.4z"
       id="path5251" />
    <circle
       cx="420.9"
       cy="296.5"
       r="45.7"
       id="circle5253" />
    <path
       d="M520.5 78.1z"
       id="path5255" />
  </g>
  <path
     style="fill:#f4e7d2;stroke:#f4e7d2;stroke-width:0.740423"
     d="m 309.21818,513.10077 c -14.37154,-4.02855 -25.2586,-15.36396 -31.46764,-32.76352 -7.55417,-21.16903 -7.82091,-53.64394 -0.74536,-90.74383 1.09834,-5.75904 1.66802,-10.48326 1.30268,-10.80276 -0.35711,-0.31231 -4.81416,-1.99179 -9.90457,-3.73217 -54.57433,-18.65868 -87.8421,-45.38915 -91.955,-73.88532 -2.14814,-14.88337 6.25206,-31.96052 22.86607,-46.4855 16.65863,-14.56397 42.62783,-28.16373 72.05062,-37.73203 3.46148,-1.12568 6.52899,-2.25737 6.81671,-2.51486 0.2877,-0.25751 -0.29253,-4.46431 -1.28941,-9.34846 -4.0902,-20.03952 -5.09503,-29.84513 -5.12107,-49.97373 -0.0198,-15.27329 0.23692,-20.29548 1.3434,-26.28501 4.89885,-26.51819 16.26238,-42.478418 34.31149,-48.190974 5.77371,-1.827384 17.31499,-2.159368 25.02377,-0.719809 24.70673,4.613806 57.8134,23.701543 84.48665,48.711003 l 3.78056,3.54474 5.84494,-5.25628 C 468.8616,88.882782 509.7072,71.77835 536.14208,81.034707 c 30.6635,10.73704 41.56524,57.344853 28.76653,122.984593 -1.05052,5.38771 -1.63922,10.03125 -1.30821,10.31896 0.331,0.28772 5.65687,2.24263 11.83526,4.34424 58.51968,19.90585 93.34249,51.3377 90.25783,81.46874 -2.22384,21.72247 -22.96285,43.54051 -57.77726,60.78335 -11.36137,5.62704 -24.68208,11.06628 -36.49488,14.90191 -5.27099,1.7115 -7.58846,2.81199 -7.58647,3.60257 10e-4,0.62605 0.83556,5.38979 1.8533,10.58606 8.46164,43.20266 6.63321,77.83883 -5.31431,100.66997 -3.9003,7.45327 -12.27003,15.85877 -18.93214,19.01304 -13.02353,6.16618 -29.4262,5.70737 -48.56445,-1.35844 -19.44323,-7.17839 -45.69146,-24.17806 -66.29008,-42.93274 l -5.07933,-4.62466 -1.95468,1.77297 c -28.34606,25.71076 -55.56083,42.67094 -78.95186,49.20259 -8.57138,2.39346 -25.09599,3.09529 -31.38315,1.33291 z m 28.78486,-22.91359 c 13.02092,-4.16232 28.42691,-12.71357 44.05516,-24.45328 8.27049,-6.21267 22.74632,-18.5218 23.2039,-19.7308 0.13793,-0.36445 -2.30915,-3.38386 -5.43797,-6.70981 -7.53562,-8.01042 -22.24732,-25.67599 -29.61548,-35.56179 -3.26882,-4.38575 -6.58385,-8.08495 -7.40144,-8.25916 -0.81447,-0.17354 -8.02192,-1.19335 -16.01656,-2.26623 -11.49196,-1.54222 -32.80325,-5.4446 -45.47539,-8.32715 -1.40878,-0.32045 -1.66114,0.41614 -3.51647,10.26377 -3.01132,15.98328 -4.2227,28.41922 -4.20645,43.18307 0.0213,19.31521 1.70085,29.42997 6.64011,39.98737 3.67012,7.8447 7.55264,11.64978 14.07227,13.7916 1.02072,0.33532 5.35434,0.49371 9.63029,0.35196 5.89361,-0.19537 9.297,-0.74443 14.06803,-2.26955 z m 189.91913,1.42232 c 2.41127,-0.62805 5.50925,-2.00009 6.8844,-3.04897 5.24905,-4.00364 9.94782,-14.02091 12.51279,-26.67587 1.83449,-9.051 1.81942,-37.37685 -0.0268,-50.42604 -1.41472,-9.99918 -4.50599,-25.88854 -5.16475,-26.54731 -0.22959,-0.22958 -5.03713,0.60987 -10.68344,1.86547 -12.76407,2.8384 -33.36936,6.32946 -44.61629,7.55913 l -8.51487,0.93096 -6.6638,8.85085 c -8.01976,10.65177 -19.28721,24.26761 -28.00549,33.84241 -3.52264,3.86871 -6.40915,7.31631 -6.4145,7.66133 -0.0261,1.6909 21.20335,18.92258 32.93911,26.73617 23.70642,15.78356 44.48151,22.70883 57.75365,19.25187 z m -92.69388,-76.67915 c 3.74229,-4.3181 8.40408,-9.89289 10.35955,-12.3884 l 3.55539,-4.53729 -27.80424,7.4e-4 c -15.29233,6.1e-4 -27.79369,0.24435 -27.78081,0.54163 0.0338,0.78004 13.79618,17.1106 21.29336,25.2669 l 6.3941,6.95623 3.58925,-3.99454 c 1.97408,-2.19699 6.65112,-7.52753 10.3934,-11.84564 z m 27.17797,-39.61663 4.0845,-0.40654 7.12047,-10.86273 c 12.83176,-19.57567 30.11929,-50.23452 35.81665,-63.51961 l 1.94245,-4.52938 -5.28512,-10.55011 C 496.16347,265.63964 484.01745,244.7519 471.84943,226.5694 l -5.45053,-8.14465 -5.88963,-0.64298 c -7.82666,-0.85445 -63.3405,-1.00614 -75.34102,-0.20587 l -9.47715,0.63198 -5.7596,8.6233 c -12.03862,18.02428 -22.66375,36.39742 -33.07925,57.20121 l -6.44536,12.87386 7.14848,14.08647 c 8.88326,17.50496 18.84734,34.67092 29.71041,51.18459 l 8.35284,12.69773 6.92191,0.45151 c 3.80704,0.24833 8.08807,0.58261 9.51338,0.74284 3.60732,0.40555 65.3485,-0.25763 70.35235,-0.75567 z m -115.51815,-4.41576 c 0,-0.23326 -2.93799,-5.14782 -6.52887,-10.92123 -6.576,-10.57289 -11.03956,-18.30363 -17.54693,-30.39077 l -3.53496,-6.56601 -1.79004,4.34475 c -1.9316,4.68835 -12.06288,34.60587 -12.06288,35.62152 0,0.70824 14.46043,3.93612 28.95665,6.46375 10.84486,1.89097 12.50703,2.0834 12.50703,1.44799 z m 160.33977,-1.4148 c 19.52818,-3.4771 29.20909,-5.80821 29.20159,-7.03159 -0.008,-1.3491 -7.7675,-24.53722 -11.09316,-33.15145 -1.29769,-3.36129 -2.67124,-5.91871 -3.05235,-5.68318 -0.38111,0.23554 -1.89674,2.81909 -3.36808,5.74122 -4.13135,8.20502 -12.47316,22.90806 -18.49263,32.59458 -2.99781,4.82407 -5.45056,8.90565 -5.45056,9.07018 0,0.54597 1.83888,0.31493 12.25519,-1.53976 z M 288.01297,346.3328 c 4.43025,-13.84825 9.43804,-27.4846 14.67589,-39.96294 l 4.10971,-9.79072 -3.91112,-9.09007 c -5.29459,-12.30546 -10.67048,-26.78925 -14.98178,-40.36408 -1.97081,-6.20543 -3.97473,-11.28658 -4.45316,-11.29145 -0.47842,-0.005 -5.30968,1.53373 -10.73613,3.41912 -42.41368,14.7364 -71.95685,36.34306 -75.00151,54.85304 -0.61862,3.76092 1.04463,10.0866 3.82666,14.55354 10.18167,16.34811 35.80528,32.56001 71.67451,45.34803 4.88679,1.74223 9.42912,3.18548 10.09407,3.20723 0.91491,0.0299 2.0589,-2.61711 4.70286,-10.8817 z m 278.45015,8.41738 c 35.15601,-11.95253 61.98806,-28.35232 72.77505,-44.48021 8.41648,-12.58369 6.56582,-22.18016 -6.87006,-35.62409 -13.80069,-13.80896 -36.53623,-26.37311 -65.5277,-36.21203 l -9.20858,-3.12514 -5.3344,15.99197 c -5.56094,16.67109 -8.30151,24.02888 -13.83172,37.135 l -3.29777,7.81542 4.76065,11.43558 c 5.38019,12.92379 13.17607,34.31915 15.83386,43.45516 0.97679,3.35764 2.12699,6.10646 2.55602,6.10849 0.42902,0.002 4.09412,-1.12303 8.14465,-2.50015 z M 321.94385,265.25649 c 9.67053,-17.73145 12.58635,-22.85134 18.40783,-32.32232 3.60546,-5.86572 6.40651,-10.81382 6.22455,-10.99578 -0.4536,-0.45361 -13.10728,1.67563 -27.95506,4.704 -6.79132,1.38517 -12.53886,2.51849 -12.7723,2.51849 -0.23344,0 -0.42444,0.4882 -0.42444,1.08488 0,2.30854 12.95808,39.63838 13.75942,39.63838 0.12988,0 1.37188,-2.08244 2.76,-4.62765 z m 204.62524,-5.40129 c 3.83255,-10.4034 10.13031,-29.9502 9.75674,-30.28267 -1.14801,-1.02167 -40.36144,-8.31396 -41.0429,-7.63251 -0.20663,0.20664 1.70477,3.66511 4.24756,7.6855 5.62877,8.89958 15.71525,26.35912 19.60697,33.93932 1.57336,3.06458 3.15541,5.47526 3.51566,5.35708 0.36025,-0.11818 2.12243,-4.19821 3.91597,-9.06672 z M 312.02453,205.85882 c 12.58223,-2.80228 29.52278,-5.69614 41.15718,-7.03068 4.07232,-0.46711 8.12732,-0.99661 9.01109,-1.17665 1.01134,-0.20603 5.04461,-4.78672 10.88285,-12.35994 9.26356,-12.01647 16.81041,-21.04307 26.93594,-32.21741 l 5.36621,-5.92203 -5.36621,-4.75096 c -23.6528,-20.94095 -47.18941,-35.22126 -66.46447,-40.32581 -5.953,-1.57652 -16.18081,-1.72756 -21.06427,-0.31108 -14.44346,4.18944 -22.11858,32.3535 -18.84331,69.146 1.13601,12.76135 5.36872,37.51878 6.41448,37.51878 0.23664,0 5.62337,-1.1566 11.97051,-2.57022 z m 231.69844,-5.38933 c 7.87651,-39.90992 6.26051,-74.04919 -4.27691,-90.35262 -5.06952,-7.84354 -10.32358,-10.161793 -21.8112,-9.62379 -15.6607,0.73343 -34.87156,9.65779 -57.83226,26.86582 -7.60433,5.69912 -22.71638,18.4554 -23.1436,19.53584 -0.10478,0.26497 2.70037,3.63979 6.23365,7.49961 8.34881,9.12034 20.15555,23.30501 28.48583,34.22298 4.19583,5.4992 7.23336,8.80665 8.26512,8.99957 0.8972,0.16776 8.22507,1.19027 16.28417,2.27224 13.0262,1.74884 43.30657,7.38895 44.1391,8.22148 1.34595,1.34595 2.25906,-0.56243 3.6561,-7.64113 z m -99.60378,-11.55876 c -6.17106,-7.52178 -18.62988,-21.63636 -21.5061,-24.36427 l -2.16007,-2.04869 -5.53444,6.12102 c -6.03208,6.6714 -15.99252,18.39982 -19.73673,23.23999 l -2.36012,3.05095 28.12079,0.0136 28.1208,0.0136 -4.94413,-6.02627 z"
     id="path5745" />
  <path
     style="fill:#f4e7d2;stroke:#f4e7d2;stroke-width:0.740423"
     d="m 410.56448,340.63388 c -16.6204,-4.23392 -29.55882,-17.03637 -33.68284,-33.32885 -1.43155,-5.65554 -1.43155,-15.8758 0,-21.53135 4.03466,-15.93941 17.34367,-29.24843 33.28309,-33.28308 5.65555,-1.43156 15.8758,-1.43156 21.53135,0 11.52395,2.91699 23.0923,11.74336 28.74212,21.92953 13.56351,24.45395 1.72241,55.51025 -24.71605,64.82418 -6.79097,2.39237 -18.64986,3.04739 -25.15767,1.38957 z"
     id="path5747" />
</svg>
