<?xml version="1.0" encoding="UTF-8" standalone="no"?>
<svg
   viewBox="0 0 841.9 595.3"
   version="1.1"
   id="svg24"
   xmlns="http://www.w3.org/2000/svg"
   xmlns:svg="http://www.w3.org/2000/svg">
  <defs
     id="defs28" />
  <g
     fill="#61DAFB"
     id="g22">
    <path
       d="M666.3 296.5c0-32.5-40.7-63.3-103.1-82.4 14.4-63.6 8-114.2-20.2-130.4-6.5-3.8-14.1-5.6-22.4-5.6v22.3c4.6 0 8.3.9 11.4 2.6 13.6 7.8 19.5 37.5 14.9 75.7-1.1 9.4-2.9 19.3-5.1 29.4-19.6-4.8-41-8.5-63.5-10.9-13.5-18.5-27.5-35.3-41.6-50 32.6-30.3 63.2-46.9 84-46.9V78c-27.5 0-63.5 19.6-99.9 53.6-36.4-33.8-72.4-53.2-99.9-53.2v22.3c20.7 0 51.4 16.5 84 46.6-14 14.7-28 31.4-41.3 49.9-22.6 2.4-44 6.1-63.6 11-2.3-10-4-19.7-5.2-29-4.7-38.2 1.1-67.9 14.6-75.8 3-1.8 6.9-2.6 11.5-2.6V78.5c-8.4 0-16 1.8-22.6 5.6-28.1 16.2-34.4 66.7-19.9 130.1-62.2 19.2-102.7 49.9-102.7 82.3 0 32.5 40.7 63.3 103.1 82.4-14.4 63.6-8 114.2 20.2 130.4 6.5 3.8 14.1 5.6 22.5 5.6 27.5 0 63.5-19.6 99.9-53.6 36.4 33.8 72.4 53.2 99.9 53.2 8.4 0 16-1.8 22.6-5.6 28.1-16.2 34.4-66.7 19.9-130.1 62-19.1 102.5-49.9 102.5-82.3zm-130.2-66.7c-3.7 12.9-8.3 26.2-13.5 39.5-4.1-8-8.4-16-13.1-24-4.6-8-9.5-15.8-14.4-23.4 14.2 2.1 27.9 4.7 41 7.9zm-45.8 106.5c-7.8 13.5-15.8 26.3-24.1 38.2-14.9 1.3-30 2-45.2 2-15.1 0-30.2-.7-45-1.9-8.3-11.9-16.4-24.6-24.2-38-7.6-13.1-14.5-26.4-20.8-39.8 6.2-13.4 13.2-26.8 20.7-39.9 7.8-13.5 15.8-26.3 24.1-38.2 14.9-1.3 30-2 45.2-2 15.1 0 30.2.7 45 1.9 8.3 11.9 16.4 24.6 24.2 38 7.6 13.1 14.5 26.4 20.8 39.8-6.3 13.4-13.2 26.8-20.7 39.9zm32.3-13c5.4 13.4 10 26.8 13.8 39.8-13.1 3.2-26.9 5.9-41.2 8 4.9-7.7 9.8-15.6 14.4-23.7 4.6-8 8.9-16.1 13-24.1zM421.2 430c-9.3-9.6-18.6-20.3-27.8-32 9 .4 18.2.7 27.5.7 9.4 0 18.7-.2 27.8-.7-9 11.7-18.3 22.4-27.5 32zm-74.4-58.9c-14.2-2.1-27.9-4.7-41-7.9 3.7-12.9 8.3-26.2 13.5-39.5 4.1 8 8.4 16 13.1 24 4.7 8 9.5 15.8 14.4 23.4zM420.7 163c9.3 9.6 18.6 20.3 27.8 32-9-.4-18.2-.7-27.5-.7-9.4 0-18.7.2-27.8.7 9-11.7 18.3-22.4 27.5-32zm-74 58.9c-4.9 7.7-9.8 15.6-14.4 23.7-4.6 8-8.9 16-13 24-5.4-13.4-10-26.8-13.8-39.8 13.1-3.1 26.9-5.8 41.2-7.9zm-90.5 125.2c-35.4-15.1-58.3-34.9-58.3-50.6 0-15.7 22.9-35.6 58.3-50.6 8.6-3.7 18-7 27.7-10.1 5.7 19.6 13.2 40 22.5 60.9-9.2 20.8-16.6 41.1-22.2 60.6-9.9-3.1-19.3-6.5-28-10.2zM310 490c-13.6-7.8-19.5-37.5-14.9-75.7 1.1-9.4 2.9-19.3 5.1-29.4 19.6 4.8 41 8.5 63.5 10.9 13.5 18.5 27.5 35.3 41.6 50-32.6 30.3-63.2 46.9-84 46.9-4.5-.1-8.3-1-11.3-2.7zm237.2-76.2c4.7 38.2-1.1 67.9-14.6 75.8-3 1.8-6.9 2.6-11.5 2.6-20.7 0-51.4-16.5-84-46.6 14-14.7 28-31.4 41.3-49.9 22.6-2.4 44-6.1 63.6-11 2.3 10.1 4.1 19.8 5.2 29.1zm38.5-66.7c-8.6 3.7-18 7-27.7 10.1-5.7-19.6-13.2-40-22.5-60.9 9.2-20.8 16.6-41.1 22.2-60.6 9.9 3.1 19.3 6.5 28.1 10.2 35.4 15.1 58.3 34.9 58.3 50.6-.1 15.7-23 35.6-58.4 50.6zM320.8 78.4z"
       id="path16"
       style="fill:#000000;fill-opacity:1" />
    <circle
       cx="420.9"
       cy="296.5"
       r="45.7"
       id="circle18" />
    <path
       d="M520.5 78.1z"
       id="path20" />
  </g>
  <path
     style="stroke-width:0.740423;fill:#31302c;"
     d="m 410.19427,340.53819 c -12.39855,-3.25622 -24.62818,-13.09842 -29.83088,-24.00741 -10.93042,-22.91882 -2.15738,-48.91166 20.38785,-60.40532 22.21587,-11.32575 50.14712,-1.78474 60.87045,20.79269 3.3882,7.13369 4.45875,12.12555 4.36677,20.36163 -0.22748,20.3681 -14.47966,38.17319 -34.66259,43.30361 -5.4838,1.39396 -15.73527,1.37203 -21.1316,-0.0452 z"
     id="path272" />
  <path
     style="stroke-width:0.740423;fill:#31302c;"
     d="M 309.86697,513.19376 C 278.51193,505.5374 265.47724,464.3848 274.7804,402.41983 c 0.82538,-5.49764 2.15661,-12.96498 2.95827,-16.59409 0.80166,-3.62911 1.19488,-6.82883 0.87384,-7.1105 -0.32105,-0.28167 -5.24839,-2.08469 -10.94964,-4.00673 -32.39852,-10.92232 -58.39331,-25.65843 -74.06529,-41.98665 -3.27051,-3.40745 -6.97461,-7.69473 -8.23132,-9.52728 -15.02342,-21.90718 -11.5788,-43.77845 10.2126,-64.84391 16.72876,-16.17148 40.58204,-29.36813 73.56485,-40.69921 4.47956,-1.53893 8.43999,-3.05618 8.80097,-3.37167 0.37447,-0.32729 -0.18327,-4.80666 -1.29885,-10.4313 -5.56949,-28.08093 -6.78806,-51.72841 -3.74912,-72.75493 1.52048,-10.52026 3.59076,-17.43942 7.87632,-26.32372 3.14807,-6.526205 4.65539,-8.676277 9.38805,-13.391354 9.51724,-9.48188 19.39815,-13.033612 34.14414,-12.273247 24.98977,1.288579 57.33753,18.270346 90.30007,47.405291 l 6.26208,5.53492 5.58468,-4.96065 c 29.5406,-26.23974 55.21925,-41.315841 80.3674,-47.184234 6.86197,-1.601258 19.28866,-1.611689 25.461,-0.02137 13.64724,3.516247 24.48043,13.947283 30.74332,29.602054 7.60738,19.01545 9.17656,47.16195 4.44315,79.69679 -1.0274,7.06176 -3.59645,20.82213 -4.43814,23.77157 -0.27008,0.94638 1.96557,1.9866 10.96814,5.10336 49.71603,17.21208 81.88781,41.0023 89.90437,66.482 3.69439,11.74218 1.4921,25.41879 -5.88199,36.52834 -13.95245,21.02025 -41.87657,39.03619 -83.08094,53.60175 -9.0434,3.1968 -11.08921,4.17928 -11.01412,5.28939 0.0507,0.74983 0.96127,5.93591 2.02345,11.52463 4.41215,23.21478 5.96994,46.83111 4.21374,63.88099 -4.4123,42.83652 -25.84912,63.62489 -59.54941,57.74805 -23.90565,-4.1688 -51.26062,-19.34722 -80.63481,-44.74176 l -8.72334,-7.54149 -4.97448,4.57922 c -26.13063,24.0543 -57.80122,42.71018 -80.49762,47.41792 -7.65915,1.58867 -20.19468,1.7685 -25.9148,0.37175 z m 23.69353,-21.88822 c 18.82816,-4.5629 46.33017,-21.41379 67.9096,-41.60924 l 4.23324,-3.96173 -9.34697,-10.36592 c -9.41729,-10.44393 -19.99964,-23.27112 -27.95467,-33.88471 -2.41222,-3.21841 -4.99902,-5.89076 -5.87711,-6.07151 -0.86265,-0.17757 -5.73332,-0.85078 -10.82373,-1.49602 -13.21546,-1.67516 -29.58184,-4.48453 -41.25971,-7.08244 -6.95462,-1.54716 -10.23078,-1.99255 -10.57383,-1.43749 -0.93157,1.50732 -4.39877,22.54488 -5.61228,34.05308 -1.98209,18.7969 -0.70355,39.98544 3.14979,52.19981 1.75184,5.55304 5.92078,13.16718 8.66642,15.82837 5.41455,5.24798 15.71221,6.68191 27.48925,3.8278 z m 197.62176,-0.70001 c 17.51422,-7.9343 22.88056,-48.85727 12.85842,-98.05664 -1.59941,-7.85164 -1.67302,-8.01277 -3.50837,-7.68089 -1.03107,0.18645 -8.53848,1.70042 -16.68313,3.36439 -14.26939,2.91525 -30.11481,5.45286 -40.50642,6.48699 l -4.96611,0.49422 -7.3625,9.7116 c -9.14875,12.06779 -18.88202,23.7753 -27.71355,33.33478 l -6.77539,7.33387 4.04936,3.65232 c 25.08081,22.62158 52.33972,38.73413 71.73043,42.39934 6.8038,1.28605 14.70346,0.85084 18.87726,-1.03998 z m -90.20774,-82.37505 c 4.24696,-5.15241 7.72174,-9.56291 7.72174,-9.80111 0,-0.2382 -12.51166,-0.43309 -27.80369,-0.43309 -18.98223,0 -27.65335,0.24325 -27.32985,0.76668 1.12519,1.8206 12.91623,15.76176 19.83735,23.45476 l 7.53033,8.37013 6.16119,-6.49468 c 3.38865,-3.57207 9.63597,-10.71028 13.88293,-15.86269 z m 21.30948,-32.93218 4.33245,-0.41987 6.8344,-10.47814 c 12.54736,-19.23694 26.27164,-43.37992 34.15667,-60.08649 l 3.84406,-8.14465 -5.55742,-11.10634 c -9.86655,-19.71804 -19.38969,-36.15344 -32.88665,-56.75698 l -6.62307,-10.11033 -8.65898,-0.6258 c -11.21671,-0.81065 -60.70118,-0.80932 -72.854,0.002 l -9.40373,0.62775 -5.866,8.99775 c -8.72746,13.38659 -12.71529,19.90296 -19.62319,32.0652 -7.09808,12.49707 -19.00952,36.01301 -19.00952,37.52917 0,1.31778 6.52539,14.58384 13.35979,27.16033 7.11351,13.09012 15.78834,27.49315 24.36943,40.46116 l 6.94212,10.49115 6.72593,0.43924 c 3.69926,0.24158 8.05869,0.56668 9.68762,0.72244 4.20672,0.40225 65.01658,-0.26257 70.23009,-0.76781 z m -116.19501,-6.01239 c -4.66913,-7.09671 -16.03283,-26.30867 -20.99421,-35.49369 l -5.8531,-10.83589 -1.22829,2.89571 c -2.00359,4.72353 -12.21841,35.37228 -12.21859,36.66089 -1.2e-4,0.93373 2.40575,1.68801 11.29129,3.53999 12.94629,2.69836 26.03464,5.07414 28.59144,5.18988 1.74304,0.0789 1.74493,0.0699 0.41146,-1.95689 z m 172.94744,-2.14451 c 9.16274,-1.81565 16.91952,-3.56037 17.23731,-3.87717 0.91601,-0.91319 -11.59254,-37.60483 -13.48554,-39.55747 -0.3191,-0.32914 -2.00897,2.16978 -3.75526,5.55317 -4.46698,8.65463 -14.58174,26.40052 -19.52085,34.24847 -2.29305,3.64352 -4.16919,6.91254 -4.16919,7.26449 0,0.8731 4.24179,0.22296 23.69353,-3.63149 z M 287.51942,347.80437 c 3.15223,-10.51676 10.66822,-30.96773 15.77544,-42.92492 1.84225,-4.31312 3.18008,-8.3706 2.97295,-9.01659 -0.20712,-0.64601 -3.23109,-8.17155 -6.71994,-16.72344 -3.48884,-8.55188 -8.38472,-21.7962 -10.87972,-29.43181 -2.73897,-8.38221 -4.91027,-13.88293 -5.48004,-13.88293 -0.51903,0 -4.39113,1.19611 -8.60467,2.658 -37.56042,13.03169 -65.78792,31.32182 -74.31629,48.15358 -1.86252,3.67591 -2.20403,5.21038 -2.20403,9.9031 0,8.01781 2.34782,12.36136 11.83296,21.89136 13.53654,13.60057 32.16479,24.14396 62.20932,35.20983 5.29403,1.94987 10.29188,3.55641 11.10635,3.57008 1.26028,0.0212 1.90189,-1.37986 4.30767,-9.40626 z m 283.13868,5.4532 c 29.24114,-10.67803 47.65659,-21.12704 61.36039,-34.81617 8.94646,-8.93688 11.59785,-13.62597 12.0301,-21.27572 0.23419,-4.14458 -0.0361,-5.6454 -1.65246,-9.17602 -8.00489,-17.48499 -36.66536,-36.25581 -76.07592,-49.82496 l -8.61813,-2.96725 -4.92008,14.93697 c -4.0735,12.36683 -10.32757,28.88784 -16.49046,43.56187 -1.1261,2.68129 -1.09677,2.80728 2.75813,11.84677 5.29102,12.40713 10.96244,27.66097 15.16572,40.78974 2.22791,6.95878 3.85973,10.92123 4.49758,10.92123 0.55058,0 5.92589,-1.7984 11.94513,-3.99646 z M 329.84987,251.00335 c 3.59411,-6.51572 8.93615,-15.67845 11.8712,-20.36163 3.42095,-5.45845 4.99347,-8.59702 4.38088,-8.74373 -1.62755,-0.38981 -39.68538,6.74469 -40.90435,7.66812 -0.54004,0.40912 12.14912,37.30374 13.68403,39.78728 0.23802,0.38511 1.33292,-0.92057 2.43313,-2.90153 1.1002,-1.98096 4.94101,-8.93279 8.53511,-15.44851 z m 194.2481,15.73399 c 2.25568,-5.75208 11.96788,-35.09342 11.96803,-36.15635 1.2e-4,-0.87067 -1.75802,-1.57442 -6.84875,-2.74139 -7.80976,-1.79027 -24.91488,-4.99534 -30.79829,-5.77081 l -3.95796,-0.52169 3.91064,6.21327 c 6.56285,10.4271 14.44396,23.90791 19.21532,32.8682 2.49387,4.68333 4.76674,8.51514 5.05083,8.51514 0.28409,0 0.94117,-1.08287 1.46018,-2.40637 z M 317.2712,204.78018 c 7.73742,-1.5931 20.73184,-3.78794 28.87649,-4.87741 8.14465,-1.08947 15.47484,-2.10618 16.28931,-2.25937 0.85773,-0.16131 4.48705,-4.25971 8.62523,-9.73999 8.79309,-11.64492 18.61493,-23.46936 27.33583,-32.90938 3.63729,-3.93722 6.58849,-7.43572 6.55823,-7.77444 -0.0738,-0.82634 -10.4296,-9.78595 -19.56619,-16.92828 -16.14721,-12.62275 -35.49021,-23.47716 -48.86791,-27.42245 -8.54357,-2.51964 -19.60753,-2.890945 -24.93085,-0.83668 -4.56673,1.7623 -9.05544,6.73113 -12.06933,13.36031 -5.11661,11.25418 -6.64155,22.38473 -6.09999,44.52369 0.38919,15.91008 1.38841,24.78607 4.58709,40.74693 1.60758,8.02157 1.60259,8.01102 3.5371,7.47379 0.91133,-0.25309 7.98757,-1.76361 15.72499,-3.35672 z m 225.00748,2.35312 c 0.78378,-2.61113 3.40879,-17.08462 4.66653,-25.7297 0.94929,-6.52497 1.29096,-13.60526 1.28629,-26.65522 -0.006,-15.70685 -0.20201,-18.67071 -1.69133,-25.52629 -3.23491,-14.89082 -8.36019,-23.58616 -15.99897,-27.14325 -3.03983,-1.41554 -4.96382,-1.73807 -10.39413,-1.74244 -19.55019,-0.0157 -47.00197,14.40209 -76.57891,40.21966 l -7.49176,6.53953 5.30837,5.67745 c 8.06894,8.62996 19.5375,22.28971 28.38941,33.81352 4.37937,5.70126 8.0678,10.48036 8.19652,10.62021 0.12872,0.13986 5.17299,0.88545 11.20949,1.65686 15.00181,1.91711 31.43014,4.76131 42.07322,7.28406 10.93831,2.59272 10.55321,2.5583 11.02527,0.98561 z m -93.58242,-12.40246 c 0,-0.50889 -12.84922,-15.75225 -19.88376,-23.58862 l -7.8821,-8.78052 -6.01084,6.36204 c -5.6799,6.01178 -21.75502,25.10003 -21.75502,25.83282 0,0.18716 12.49464,0.34692 27.76586,0.35502 15.27122,0.008 27.76586,-0.0732 27.76586,-0.18074 z"
     id="path274" />
</svg>
